<?xml version="1.0" encoding="UTF-8" standalone="no"?>
<!DOCTYPE svg PUBLIC "-//W3C//DTD SVG 1.1//EN" "http://www.w3.org/Graphics/SVG/1.1/DTD/svg11.dtd">
<svg xmlns="http://www.w3.org/2000/svg" version="1.1" viewBox="0.00 0.00 442.00 248.00" width="442.00" height="248.00">
<g fill="#354a9b">
<path d="
  M 54.95 52.06
  L 55.02 76.14
  Q 55.02 76.75 55.64 76.75
  L 105.98 76.75
  A 0.97 0.97 0.0 0 1 106.95 77.73
  L 106.67 102.26
  A 1.00 1.00 0.0 0 1 105.67 103.25
  L 55.52 103.25
  A 0.55 0.55 0.0 0 0 54.97 103.80
  L 55.02 144.69
  A 0.98 0.98 0.0 0 1 54.05 145.67
  L 25.68 146.03
  A 0.92 0.91 -0.3 0 1 24.75 145.12
  L 24.74 25.59
  Q 24.74 25.03 25.31 25.02
  C 54.97 24.47 84.72 24.72 114.49 24.99
  A 0.71 0.70 -89.6 0 1 115.19 25.71
  L 114.92 50.42
  Q 114.91 51.50 113.83 51.50
  L 55.51 51.50
  Q 54.95 51.50 54.95 52.06
  Z"
/>
<path d="
  M 196.40 125.18
  L 147.08 125.01
  A 1.26 1.26 0.0 0 0 145.90 125.82
  L 138.40 145.20
  Q 138.22 145.66 137.72 145.67
  L 107.15 146.02
  A 1.02 1.01 11.1 0 1 106.20 144.61
  L 156.92 25.44
  Q 157.13 24.96 157.65 24.95
  L 185.64 24.83
  A 1.03 1.02 78.1 0 1 186.60 25.46
  Q 210.56 81.78 234.34 138.18
  Q 236.03 142.18 236.86 144.95
  Q 237.11 145.76 236.27 145.77
  L 206.44 146.08
  A 1.85 1.85 0.0 0 1 204.70 144.90
  L 197.31 125.80
  Q 197.07 125.18 196.40 125.18
  Z
  M 156.42 98.78
  A 0.79 0.79 0.0 0 0 157.16 99.86
  L 185.86 99.86
  A 0.79 0.79 0.0 0 0 186.60 98.78
  L 172.25 61.69
  A 0.79 0.79 0.0 0 0 170.77 61.69
  L 156.42 98.78
  Z"
/>
<path d="
  M 249.73 25.58
  A 0.71 0.71 0.0 0 1 250.43 24.87
  L 301.68 24.78
  A 61.94 58.75 -0.1 0 1 363.73 83.42
  L 363.73 86.82
  A 61.94 58.75 -0.1 0 1 301.90 145.68
  L 250.65 145.77
  A 0.71 0.71 0.0 0 1 249.93 145.06
  L 249.73 25.58
  Z
  M 280.18 52.79
  L 280.30 117.79
  A 0.85 0.85 0.0 0 0 281.15 118.63
  L 298.58 118.60
  A 34.76 32.95 -0.1 0 0 333.28 85.59
  L 333.28 84.79
  A 34.76 32.95 -0.1 0 0 298.46 51.90
  L 281.03 51.93
  A 0.85 0.85 0.0 0 0 280.18 52.79
  Z"
/>
<rect x="381.93" y="25.00" width="30.32" height="120.74" rx="0.73"/>
<path d="
  M 101.45 177.80
  C 91.52 183.31 91.08 199.63 102.29 203.97
  Q 115.09 208.92 120.80 195.25
  Q 121.04 194.68 121.65 194.70
  L 133.22 195.05
  Q 134.33 195.09 134.09 196.17
  C 127.03 228.35 81.27 222.90 80.49 190.74
  C 80.06 172.91 96.88 160.77 113.76 164.19
  Q 129.91 167.47 134.05 184.86
  Q 134.44 186.50 132.75 186.50
  L 121.24 186.50
  Q 120.62 186.50 120.44 185.91
  C 117.90 177.50 109.23 173.48 101.45 177.80
  Z"
/>
<path d="
  M 62.94 208.00
  L 42.43 208.00
  A 0.77 0.77 0.0 0 0 41.71 208.51
  L 38.99 215.93
  A 0.77 0.77 0.0 0 1 38.28 216.44
  L 25.50 216.63
  A 0.77 0.77 0.0 0 1 24.78 215.56
  L 46.42 164.97
  A 0.77 0.77 0.0 0 1 47.13 164.50
  L 58.56 164.50
  A 0.77 0.77 0.0 0 1 59.27 164.97
  L 80.54 215.43
  A 0.77 0.77 0.0 0 1 79.83 216.50
  L 67.34 216.50
  A 0.77 0.77 0.0 0 1 66.63 216.01
  L 63.65 208.49
  A 0.77 0.77 0.0 0 0 62.94 208.00
  Z
  M 46.44 196.27
  A 0.31 0.31 0.0 0 0 46.73 196.69
  L 58.61 196.65
  A 0.31 0.31 0.0 0 0 58.90 196.23
  L 52.90 181.19
  A 0.31 0.31 0.0 0 0 52.33 181.20
  L 46.44 196.27
  Z"
/>
<path d="
  M 172.20 207.99
  L 151.72 208.01
  A 0.71 0.71 0.0 0 0 151.06 208.46
  L 148.02 216.05
  A 0.71 0.71 0.0 0 1 147.36 216.50
  L 134.75 216.50
  A 0.71 0.71 0.0 0 1 134.10 215.51
  L 155.53 164.93
  A 0.71 0.71 0.0 0 1 156.18 164.50
  L 167.79 164.50
  A 0.71 0.71 0.0 0 1 168.44 164.93
  L 189.83 215.51
  A 0.71 0.71 0.0 0 1 189.18 216.50
  L 176.45 216.50
  A 0.71 0.71 0.0 0 1 175.79 216.04
  L 172.87 208.45
  A 0.71 0.71 0.0 0 0 172.20 207.99
  Z
  M 155.74 195.69
  A 0.74 0.74 0.0 0 0 156.43 196.71
  L 167.30 196.75
  A 0.74 0.74 0.0 0 0 167.99 195.74
  L 162.60 182.00
  A 0.74 0.74 0.0 0 0 161.22 182.00
  L 155.74 195.69
  Z"
/>
<path d="
  M 195.14 165.29
  A 0.75 0.75 0.0 0 1 195.88 164.54
  L 217.08 164.50
  A 27.09 25.93 -0.1 0 1 244.22 190.39
  L 244.22 190.69
  A 27.09 25.93 -0.1 0 1 217.18 216.66
  L 195.98 216.70
  A 0.75 0.75 0.0 0 1 195.22 215.95
  L 195.14 165.29
  Z
  M 208.53 177.77
  L 208.49 203.69
  A 1.03 1.03 0.0 0 0 209.52 204.72
  L 215.55 204.73
  A 15.26 13.87 0.1 0 0 230.83 190.89
  L 230.83 190.65
  A 15.26 13.87 0.1 0 0 215.59 176.75
  L 209.56 176.74
  A 1.03 1.03 0.0 0 0 208.53 177.77
  Z"
/>
<path d="
  M 265.64 204.97
  L 290.37 205.06
  A 0.89 0.89 0.0 0 1 291.26 205.95
  L 291.22 215.61
  A 0.89 0.89 0.0 0 1 290.33 216.50
  L 252.39 216.50
  A 0.89 0.89 0.0 0 1 251.50 215.61
  L 251.50 165.43
  A 0.89 0.89 0.0 0 1 252.39 164.54
  L 290.19 164.50
  A 0.89 0.89 0.0 0 1 291.08 165.41
  L 290.83 175.09
  A 0.89 0.89 0.0 0 1 289.95 175.95
  L 265.64 176.09
  A 0.89 0.89 0.0 0 0 264.75 176.99
  L 264.76 184.29
  A 0.89 0.89 0.0 0 0 265.63 185.17
  L 286.63 185.53
  A 0.89 0.89 0.0 0 1 287.50 186.42
  L 287.50 195.61
  A 0.89 0.89 0.0 0 1 286.61 196.50
  L 265.64 196.50
  A 0.89 0.89 0.0 0 0 264.75 197.39
  L 264.75 204.08
  A 0.89 0.89 0.0 0 0 265.64 204.97
  Z"
/>
<path d="
  M 339.98 192.51
  A 0.36 0.35 13.3 0 0 339.73 192.66
  L 329.91 207.79
  Q 329.60 208.27 329.03 208.34
  C 323.85 208.97 322.56 209.15 319.61 204.65
  Q 315.59 198.54 312.00 192.53
  A 0.49 0.48 29.9 0 0 311.10 192.77
  L 310.96 215.20
  Q 310.95 216.59 309.55 216.58
  L 298.51 216.46
  A 0.77 0.77 0.0 0 1 297.75 215.69
  L 297.75 165.31
  Q 297.75 164.62 298.44 164.62
  L 307.14 164.58
  Q 307.67 164.58 307.97 165.02
  L 325.25 191.28
  A 0.64 0.64 0.0 0 0 326.32 191.28
  L 343.45 165.16
  A 1.46 1.45 16.5 0 1 344.67 164.50
  L 353.02 164.50
  Q 353.60 164.50 353.60 165.09
  L 353.45 215.86
  A 0.64 0.64 0.0 0 1 352.82 216.50
  L 341.30 216.50
  Q 340.81 216.50 340.80 216.01
  Q 340.64 204.33 340.72 192.76
  Q 340.73 192.41 339.98 192.51
  Z"
/>
<path d="
  M 385.98 185.76
  L 397.28 165.51
  A 2.02 2.00 -75.1 0 1 399.03 164.48
  L 411.06 164.54
  A 0.90 0.90 0.0 0 1 411.84 165.88
  L 392.00 200.82
  Q 391.73 201.29 391.74 201.84
  L 391.93 215.33
  A 1.09 1.09 0.0 0 1 390.86 216.44
  L 379.77 216.63
  A 0.68 0.68 0.0 0 1 379.08 216.02
  Q 378.51 210.11 378.94 204.26
  C 379.17 201.25 378.21 200.17 376.82 197.69
  Q 367.72 181.44 358.49 165.26
  A 0.32 0.32 0.0 0 1 358.74 164.78
  C 361.54 164.56 372.25 163.44 373.66 166.03
  Q 379.08 175.96 384.80 185.77
  A 0.68 0.68 0.0 0 0 385.98 185.76
  Z"
/>
</g>
</svg>
